<svg id="svg" version="1.1" xmlns="http://www.w3.org/2000/svg" xmlns:xlink="http://www.w3.org/1999/xlink" width="400" height="240.6113537117904" viewBox="0, 0, 400,240.6113537117904"><g id="svgg"><path id="path0" d="M63.418 99.398 C 63.282 99.618,64.128 101.315,65.671 103.922 C 66.086 104.622,66.426 105.260,66.426 105.339 C 66.426 105.418,66.767 106.036,67.184 106.712 C 67.602 107.389,68.129 108.267,68.357 108.664 C 68.585 109.061,69.613 110.848,70.641 112.635 C 71.670 114.422,72.888 116.588,73.348 117.449 C 74.333 119.292,75.895 122.016,76.691 123.280 C 77.002 123.774,77.256 124.218,77.256 124.269 C 77.256 124.351,79.358 128.061,83.346 135.018 C 84.143 136.408,85.084 138.087,85.438 138.748 C 86.238 140.246,86.774 140.309,87.479 138.989 C 87.762 138.460,89.064 136.185,90.371 133.935 C 91.678 131.685,92.986 129.410,93.277 128.881 C 93.569 128.351,94.415 126.853,95.159 125.551 C 95.902 124.250,96.510 123.037,96.510 122.856 C 96.510 122.675,96.682 122.431,96.892 122.313 C 97.319 122.074,98.072 120.878,99.045 118.893 C 99.402 118.165,99.938 117.243,100.237 116.844 C 100.535 116.446,101.229 115.255,101.780 114.197 C 103.155 111.555,103.726 110.565,104.764 109.028 C 105.254 108.302,105.656 107.609,105.656 107.489 C 105.656 107.369,106.030 106.707,106.487 106.018 C 106.944 105.330,107.470 104.323,107.657 103.782 C 107.843 103.240,108.390 102.204,108.872 101.478 C 109.887 99.948,109.955 99.511,109.206 99.308 C 108.293 99.060,63.572 99.148,63.418 99.398 M135.620 103.008 L 134.657 103.129 134.657 119.856 L 134.657 136.582 138.489 136.649 C 140.991 136.692,142.412 136.625,142.581 136.456 C 142.751 136.286,142.849 134.031,142.866 129.864 C 142.880 126.381,142.968 123.408,143.061 123.258 C 143.323 122.832,154.846 122.877,155.201 123.305 C 155.377 123.517,155.489 125.816,155.531 130.104 L 155.596 136.582 159.687 136.582 L 163.779 136.582 163.840 120.067 C 163.891 106.611,163.843 103.503,163.584 103.287 C 163.230 102.994,157.163 102.757,156.197 102.999 L 155.596 103.150 155.475 109.638 L 155.355 116.125 149.354 116.190 C 145.355 116.233,143.269 116.169,143.098 115.998 C 142.931 115.831,142.842 113.624,142.841 109.629 C 142.840 105.576,142.752 103.427,142.580 103.255 C 142.304 102.978,137.283 102.800,135.620 103.008 M205.437 102.951 C 197.589 102.994,194.049 103.095,193.824 103.281 C 193.361 103.665,193.368 108.615,193.832 109.000 C 194.050 109.180,195.634 109.282,198.465 109.298 C 200.832 109.312,203.011 109.415,203.309 109.527 L 203.851 109.732 203.854 122.916 C 203.856 130.168,203.946 136.239,204.053 136.408 C 204.201 136.641,205.200 136.699,208.201 136.649 L 212.154 136.582 212.216 123.235 C 212.256 114.660,212.365 109.801,212.521 109.645 C 212.666 109.500,214.634 109.393,217.403 109.379 C 219.954 109.367,222.172 109.276,222.332 109.177 C 222.946 108.798,222.717 103.280,222.082 103.133 C 221.188 102.927,217.311 102.885,205.437 102.951 M285.319 103.097 C 284.844 103.446,284.392 134.361,284.836 136.167 C 284.970 136.713,284.983 136.714,288.995 136.648 L 293.020 136.582 293.141 127.080 L 293.261 117.577 295.307 117.293 C 299.435 116.721,301.972 116.937,302.454 117.903 C 302.560 118.116,302.702 122.407,302.768 127.437 L 302.888 136.582 306.859 136.582 L 310.830 136.582 310.830 126.474 C 310.830 115.168,310.825 115.128,309.094 113.055 C 307.411 111.039,304.850 110.488,299.341 110.957 C 297.453 111.117,295.286 111.300,294.525 111.362 L 293.141 111.475 293.137 107.542 C 293.135 105.380,293.042 103.466,292.930 103.289 C 292.612 102.787,285.968 102.619,285.319 103.097 M233.093 110.923 C 227.611 111.713,226.355 114.996,226.893 127.131 C 227.200 134.071,228.007 135.788,231.464 136.865 C 233.307 137.439,246.169 137.134,249.767 136.432 L 251.038 136.183 250.970 133.495 L 250.903 130.806 249.218 130.833 C 248.291 130.848,244.980 130.946,241.860 131.050 L 236.186 131.239 235.652 130.665 C 235.210 130.191,235.130 129.862,235.188 128.764 L 235.259 127.437 243.562 127.309 C 248.129 127.238,251.892 127.157,251.925 127.128 C 252.184 126.903,251.930 116.921,251.641 115.969 C 250.916 113.579,249.836 112.353,247.653 111.438 C 246.247 110.848,236.101 110.490,233.093 110.923 M262.575 111.358 C 257.727 112.172,256.587 114.295,256.398 122.864 C 256.121 135.386,257.360 137.186,266.255 137.183 C 271.041 137.181,278.900 136.599,279.281 136.219 C 279.593 135.906,279.780 132.469,279.551 131.249 L 279.388 130.379 277.781 130.526 C 274.998 130.779,266.533 131.006,265.888 130.844 C 264.894 130.594,264.741 129.674,264.741 123.944 C 264.741 119.021,264.770 118.680,265.240 118.083 L 265.739 117.449 272.553 117.449 L 279.366 117.449 279.511 116.907 C 279.703 116.193,279.704 112.898,279.513 111.943 L 279.362 111.191 271.270 111.224 C 266.819 111.242,262.906 111.302,262.575 111.358 M169.777 116.729 L 169.073 116.851 169.005 119.717 C 168.965 121.401,169.036 122.682,169.178 122.824 C 169.565 123.211,188.237 123.082,188.485 122.691 C 188.732 122.303,188.744 117.428,188.500 117.044 C 188.314 116.751,171.294 116.465,169.777 116.729 M243.163 116.926 C 243.610 117.420,243.954 119.944,243.707 120.926 L 243.548 121.561 239.644 121.529 C 235.056 121.491,235.138 121.531,235.138 119.334 C 235.138 116.690,235.453 116.486,239.543 116.486 C 242.357 116.486,242.816 116.542,243.163 116.926 " stroke="none" fill="#0fadf2" fill-rule="evenodd"></path><path id="path1" d="M0.000 120.337 L 0.000 240.674 200.000 240.674 L 400.000 240.674 400.000 120.337 L 400.000 0.000 200.000 0.000 L 0.000 0.000 0.000 120.337 M109.622 98.798 C 110.618 99.105,112.408 99.165,120.208 99.152 C 130.571 99.134,130.147 99.056,128.973 100.763 C 127.913 102.303,126.354 105.165,126.354 105.569 C 126.354 105.749,126.259 105.897,126.143 105.897 C 126.027 105.897,125.272 107.061,124.464 108.484 C 123.656 109.907,122.836 111.342,122.641 111.673 C 122.446 112.004,121.644 113.412,120.859 114.801 C 118.918 118.237,116.801 121.944,115.221 124.669 C 114.953 125.132,114.489 125.945,114.190 126.474 C 113.891 127.004,113.040 128.507,112.299 129.814 C 111.557 131.122,110.951 132.230,110.951 132.276 C 110.951 132.323,110.589 132.932,110.146 133.630 C 109.371 134.850,107.891 137.499,106.645 139.892 C 105.885 141.353,105.804 141.336,104.943 139.531 C 104.548 138.703,104.028 137.692,103.788 137.283 C 103.548 136.874,102.911 135.791,102.372 134.876 C 101.834 133.962,100.552 131.724,99.523 129.904 C 98.495 128.084,97.559 126.594,97.443 126.594 C 97.327 126.594,97.232 126.405,97.231 126.173 C 97.229 125.632,96.404 124.374,96.191 124.587 C 96.102 124.676,96.029 124.996,96.029 125.297 C 96.029 125.598,95.921 125.911,95.788 125.993 C 95.656 126.075,95.548 126.439,95.548 126.802 C 95.548 127.242,95.264 127.737,94.701 128.284 C 94.235 128.735,93.743 129.513,93.609 130.013 C 93.474 130.512,92.884 131.623,92.296 132.481 C 91.709 133.339,91.157 134.324,91.070 134.670 C 90.984 135.015,90.764 135.355,90.583 135.424 C 90.401 135.494,90.253 135.810,90.253 136.127 C 90.253 136.444,90.144 136.703,90.012 136.703 C 89.880 136.703,89.771 136.838,89.770 137.004 C 89.770 137.169,89.459 137.635,89.081 138.039 C 88.702 138.443,88.178 139.255,87.917 139.844 C 86.852 142.248,84.698 141.683,84.716 139.005 C 84.717 138.881,84.514 138.556,84.266 138.283 C 84.019 138.009,83.712 137.461,83.586 137.064 C 83.459 136.667,83.093 136.211,82.773 136.050 C 82.157 135.742,81.617 134.757,81.599 133.907 C 81.593 133.626,81.101 132.670,80.505 131.782 C 79.910 130.894,79.422 129.970,79.422 129.729 C 79.422 129.489,79.045 128.961,78.585 128.556 C 77.990 128.034,77.702 127.542,77.594 126.861 C 77.509 126.334,77.291 125.845,77.108 125.775 C 76.925 125.704,76.775 125.426,76.775 125.156 C 76.775 124.887,76.510 124.435,76.185 124.153 C 75.861 123.871,75.522 123.305,75.432 122.895 C 75.212 121.896,74.607 121.008,74.241 121.148 C 74.051 121.222,73.903 120.945,73.826 120.374 C 73.761 119.885,73.450 119.089,73.135 118.605 C 72.821 118.121,72.130 117.002,71.600 116.119 C 71.071 115.235,70.496 114.362,70.322 114.178 C 70.149 113.994,69.946 113.469,69.871 113.011 C 69.786 112.487,69.439 111.907,68.934 111.447 C 68.446 111.004,68.025 110.314,67.860 109.691 C 67.711 109.126,67.278 108.339,66.897 107.941 C 66.517 107.544,66.038 106.743,65.833 106.161 C 65.628 105.580,65.027 104.635,64.499 104.062 C 63.832 103.339,63.538 102.802,63.538 102.312 C 63.538 101.923,63.419 101.565,63.274 101.516 C 62.977 101.418,62.683 99.370,62.888 98.835 C 63.095 98.295,107.879 98.259,109.622 98.798 M290.854 101.811 C 290.854 101.821,291.330 101.870,291.912 101.920 C 293.582 102.064,293.641 102.208,293.752 106.402 C 293.806 108.441,293.853 110.205,293.857 110.324 C 293.860 110.450,294.837 110.457,296.209 110.340 C 299.539 110.056,304.621 110.073,305.897 110.373 C 307.381 110.722,309.507 111.727,309.507 112.080 C 309.507 112.240,309.855 112.696,310.281 113.094 C 311.524 114.256,311.691 115.825,311.685 126.302 C 311.681 133.010,311.755 135.400,311.977 135.766 C 312.468 136.573,310.424 138.054,309.369 137.657 C 309.094 137.554,307.482 137.499,305.786 137.534 C 301.973 137.615,300.989 137.121,301.555 135.409 C 301.792 134.690,301.790 134.360,301.547 133.773 C 301.283 133.135,301.296 133.007,301.644 132.812 C 302.185 132.510,302.247 119.298,301.711 118.592 C 301.321 118.079,297.091 117.990,295.085 118.453 L 293.863 118.735 293.860 127.057 C 293.857 138.519,294.227 137.662,289.278 137.664 C 287.881 137.665,286.636 137.764,286.510 137.885 C 285.531 138.827,283.974 137.255,284.029 135.379 C 284.040 134.982,284.090 127.519,284.139 118.796 C 284.246 99.825,283.796 101.639,288.371 101.739 C 289.737 101.768,290.854 101.801,290.854 101.811 M142.252 101.938 C 143.583 102.209,143.736 102.960,143.746 109.290 C 143.758 116.323,143.190 115.622,148.953 115.720 C 154.954 115.823,154.427 116.437,154.484 109.285 C 154.546 101.542,154.230 101.997,159.623 101.888 C 163.782 101.803,163.981 101.854,164.462 103.113 C 164.852 104.135,164.675 136.725,164.277 137.165 C 163.957 137.519,163.358 137.570,159.717 137.559 C 154.667 137.542,154.504 137.471,154.535 135.283 C 154.546 134.542,154.550 132.310,154.543 130.325 C 154.537 128.339,154.591 126.377,154.664 125.965 C 154.770 125.358,154.648 125.047,154.027 124.340 L 153.259 123.466 148.846 123.466 C 144.020 123.466,143.272 123.694,143.951 124.962 C 144.124 125.285,144.114 125.522,143.919 125.757 C 143.625 126.111,143.733 134.765,144.046 136.000 C 144.341 137.160,143.347 137.516,139.711 137.555 C 137.990 137.574,136.474 137.629,136.342 137.677 C 134.866 138.217,133.540 137.080,133.593 135.320 C 133.612 134.691,133.619 127.258,133.609 118.802 C 133.590 103.703,133.623 102.994,134.372 102.245 C 134.701 101.916,140.944 101.673,142.252 101.938 M213.298 102.109 L 222.385 102.166 223.006 102.888 C 223.547 103.517,223.603 103.734,223.438 104.573 C 223.334 105.102,223.235 106.348,223.217 107.341 C 223.197 108.522,223.048 109.395,222.786 109.868 C 222.566 110.265,222.385 110.842,222.384 111.151 C 222.382 111.837,221.813 111.732,221.709 111.026 C 221.606 110.336,220.709 109.904,219.964 110.187 C 219.356 110.419,216.111 110.370,214.934 110.111 C 213.192 109.728,213.245 109.319,213.219 123.468 C 213.194 136.963,213.218 136.687,211.956 137.677 C 211.382 138.127,211.194 138.165,210.741 137.923 C 210.446 137.765,209.886 137.650,209.495 137.667 C 204.825 137.869,202.789 137.379,202.907 136.083 C 203.230 132.528,203.087 111.351,202.736 110.816 L 202.330 110.196 198.087 110.263 C 192.518 110.351,192.597 110.413,192.499 105.842 C 192.413 101.810,192.260 101.895,199.398 101.988 C 202.046 102.023,208.301 102.077,213.298 102.109 M247.052 110.255 C 248.735 110.717,250.043 111.422,250.473 112.099 C 250.703 112.460,251.022 112.838,251.181 112.939 C 251.341 113.040,251.697 113.724,251.972 114.460 C 253.427 118.349,253.115 130.480,251.615 128.339 C 251.294 127.880,239.028 127.739,236.910 128.170 C 235.700 128.416,235.965 129.832,237.296 130.230 C 238.745 130.665,247.217 130.216,247.817 129.673 C 248.719 128.857,251.103 129.527,251.613 130.739 C 251.980 131.612,251.884 135.632,251.470 136.730 L 251.232 137.359 246.254 137.693 C 233.588 138.542,231.017 138.266,228.338 135.773 C 226.135 133.725,226.208 134.040,226.057 125.930 C 225.974 121.509,225.830 118.712,225.679 118.614 C 225.521 118.512,225.566 118.173,225.806 117.652 C 226.009 117.209,226.314 116.252,226.481 115.523 C 226.854 113.907,228.287 111.736,229.122 111.522 C 229.452 111.437,229.893 111.220,230.101 111.041 C 230.309 110.861,231.059 110.604,231.767 110.470 C 232.476 110.335,233.109 110.172,233.175 110.107 C 233.422 109.859,246.104 109.995,247.052 110.255 M273.647 110.710 L 279.831 110.710 280.219 111.613 C 280.533 112.342,280.826 115.273,280.634 115.764 C 280.608 115.830,280.460 116.372,280.306 116.968 L 280.024 118.051 273.072 118.189 C 264.684 118.355,265.482 117.882,265.415 122.730 C 265.356 126.984,265.360 127.117,265.589 128.704 C 265.837 130.420,265.075 130.317,274.425 129.895 C 280.254 129.631,280.308 129.643,280.432 131.125 C 280.478 131.676,280.619 131.987,280.806 131.949 C 281.245 131.862,281.175 132.534,280.727 132.706 C 280.440 132.816,280.387 133.034,280.510 133.596 C 281.043 136.020,280.206 137.221,277.796 137.490 C 275.849 137.707,275.280 137.737,267.629 138.019 L 262.936 138.192 260.827 137.494 C 258.194 136.622,256.448 135.159,256.252 133.657 C 256.185 133.148,256.002 132.002,255.845 131.111 C 255.401 128.592,255.608 117.624,256.123 116.366 C 256.340 115.836,256.576 115.131,256.649 114.798 C 257.269 111.936,260.351 110.376,264.959 110.592 C 266.337 110.657,270.246 110.710,273.647 110.710 M181.709 115.922 C 189.727 116.019,189.170 115.909,189.170 117.393 C 189.170 118.033,189.289 118.675,189.434 118.820 C 189.613 118.999,189.642 119.755,189.525 121.161 C 189.277 124.136,189.811 123.958,181.107 123.977 C 177.136 123.985,172.814 124.007,171.503 124.026 C 168.357 124.070,168.188 123.885,168.092 120.291 C 168.056 118.926,168.019 117.544,168.010 117.219 C 167.976 116.009,169.183 115.607,172.443 115.741 C 173.767 115.795,177.936 115.877,181.709 115.922 M121.296 116.787 C 121.288 117.474,120.826 117.826,120.822 117.148 C 120.820 116.784,120.927 116.486,121.059 116.486 C 121.191 116.486,121.298 116.622,121.296 116.787 M237.078 117.690 C 235.609 118.404,235.803 119.904,237.419 120.310 C 238.916 120.687,242.515 120.663,242.664 120.275 C 242.889 119.688,242.282 117.450,241.890 117.421 C 239.774 117.264,237.718 117.378,237.078 117.690 M114.316 130.024 C 114.321 130.539,113.942 130.580,113.752 130.084 C 113.544 129.543,113.846 128.866,114.109 129.282 C 114.221 129.458,114.314 129.792,114.316 130.024 M313.357 136.462 C 313.357 136.727,313.255 136.943,313.131 136.943 C 312.808 136.943,312.580 136.505,312.756 136.221 C 313.007 135.814,313.357 135.954,313.357 136.462 M226.132 137.627 C 225.618 137.727,225.409 137.545,225.629 137.188 C 225.748 136.996,225.901 137.008,226.172 137.233 C 226.512 137.514,226.508 137.553,226.132 137.627 " stroke="none" fill="#fbfbfb" fill-rule="evenodd"></path><path id="path2" d="M110.349 99.342 C 110.217 99.439,109.776 100.168,109.370 100.963 C 108.964 101.757,107.664 104.064,106.482 106.089 C 105.299 108.114,104.051 110.280,103.707 110.902 C 101.954 114.078,98.387 120.420,97.508 121.925 C 96.226 124.122,96.197 123.926,98.356 127.765 C 99.372 129.570,100.650 131.859,101.196 132.852 C 101.743 133.845,102.482 135.115,102.840 135.675 C 103.197 136.235,103.490 136.736,103.490 136.789 C 103.490 137.134,105.845 140.695,105.970 140.539 C 106.622 139.723,107.446 138.432,108.184 137.068 C 108.685 136.144,110.089 133.653,111.305 131.533 C 112.521 129.412,113.790 127.190,114.125 126.594 C 114.459 125.999,114.952 125.132,115.218 124.669 C 115.727 123.785,118.122 119.613,118.949 118.171 C 119.214 117.708,120.068 116.224,120.847 114.874 C 121.625 113.524,122.262 112.362,122.262 112.292 C 122.262 112.221,122.625 111.593,123.069 110.895 C 123.512 110.198,124.442 108.598,125.134 107.341 C 125.827 106.083,126.870 104.242,127.451 103.249 C 128.664 101.177,129.242 99.964,129.242 99.489 C 129.242 99.125,110.840 98.981,110.349 99.342 " stroke="none" fill="#f2460d" fill-rule="evenodd"></path><path id="path3" d="M62.907 99.266 C 62.778 99.604,64.464 102.974,65.620 104.689 C 65.931 105.150,66.185 105.608,66.185 105.707 C 66.185 105.806,66.568 106.485,67.035 107.216 C 67.503 107.947,67.954 108.734,68.039 108.966 C 68.123 109.197,68.483 109.819,68.840 110.349 C 69.196 110.878,69.827 111.997,70.241 112.835 C 70.655 113.673,71.194 114.648,71.439 115.001 C 71.685 115.355,72.783 117.268,73.879 119.254 C 74.975 121.239,76.058 123.135,76.286 123.466 C 76.513 123.797,77.082 124.771,77.549 125.632 C 78.017 126.492,78.752 127.846,79.183 128.640 C 79.615 129.434,80.197 130.462,80.477 130.923 C 80.757 131.385,81.119 131.980,81.281 132.247 C 81.443 132.514,81.753 133.108,81.969 133.569 C 82.186 134.029,82.652 134.841,83.005 135.374 C 83.358 135.906,83.841 136.721,84.078 137.184 C 85.295 139.563,86.133 140.794,86.534 140.794 C 86.799 140.794,89.290 137.027,89.290 136.626 C 89.290 136.459,90.974 133.567,91.347 133.093 C 91.503 132.894,92.095 131.865,92.662 130.806 C 93.229 129.747,94.149 128.123,94.706 127.196 C 95.263 126.270,95.796 125.268,95.890 124.970 C 95.984 124.672,96.162 124.428,96.286 124.428 C 96.409 124.428,96.511 124.239,96.511 124.007 C 96.512 123.776,96.729 123.230,96.995 122.794 L 97.478 122.002 96.994 122.261 C 96.728 122.403,96.510 122.670,96.510 122.852 C 96.510 123.035,95.902 124.250,95.159 125.551 C 94.415 126.853,93.569 128.351,93.277 128.881 C 92.986 129.410,91.678 131.685,90.371 133.935 C 89.064 136.185,87.762 138.460,87.479 138.989 C 86.774 140.309,86.238 140.246,85.438 138.748 C 85.084 138.087,84.143 136.408,83.346 135.018 C 79.358 128.061,77.256 124.351,77.256 124.269 C 77.256 124.218,77.002 123.774,76.691 123.280 C 75.895 122.016,74.333 119.292,73.348 117.449 C 72.888 116.588,71.670 114.422,70.641 112.635 C 69.613 110.848,68.585 109.061,68.357 108.664 C 68.129 108.267,67.602 107.389,67.184 106.712 C 66.767 106.036,66.426 105.418,66.426 105.339 C 66.426 105.260,66.086 104.622,65.671 103.922 C 64.128 101.315,63.282 99.618,63.418 99.398 C 63.571 99.151,108.290 99.059,109.193 99.304 C 109.484 99.383,109.769 99.626,109.827 99.844 C 109.919 100.192,109.936 100.189,109.960 99.819 C 109.975 99.588,110.123 99.386,110.289 99.370 C 110.454 99.354,110.265 99.259,109.868 99.158 C 108.369 98.776,63.055 98.881,62.907 99.266 M108.857 101.504 C 108.002 102.841,107.581 103.626,107.581 103.882 C 107.581 104.095,108.828 102.162,109.382 101.091 C 109.944 100.004,109.686 100.208,108.857 101.504 M134.344 102.816 C 133.926 103.234,133.926 136.478,134.344 136.895 C 134.695 137.246,142.407 137.298,142.952 136.954 C 143.249 136.766,143.298 135.752,143.263 130.570 C 143.239 127.181,143.322 124.142,143.445 123.817 L 143.670 123.225 148.626 123.225 C 155.583 123.225,154.986 122.546,154.990 130.457 C 154.993 134.915,155.073 136.686,155.283 136.895 C 155.485 137.097,156.807 137.184,159.687 137.184 C 162.567 137.184,163.889 137.097,164.091 136.895 C 164.473 136.514,164.512 103.704,164.131 102.993 C 163.827 102.424,155.834 102.264,155.283 102.816 C 155.073 103.025,154.994 104.774,154.994 109.174 C 154.994 112.512,154.928 115.415,154.848 115.624 C 154.614 116.233,143.799 116.195,143.479 115.584 C 143.358 115.352,143.249 112.422,143.237 109.073 C 143.224 105.724,143.151 102.881,143.073 102.755 C 142.856 102.404,134.700 102.460,134.344 102.816 M193.407 102.908 C 193.327 103.117,193.261 104.570,193.261 106.137 C 193.261 110.114,192.780 109.747,197.996 109.747 C 200.598 109.747,202.631 109.851,202.904 109.996 C 203.355 110.238,203.369 110.642,203.369 123.466 C 203.369 136.290,203.383 136.693,203.835 136.935 C 204.515 137.299,212.098 137.264,212.467 136.895 C 212.685 136.678,212.756 133.328,212.756 123.297 C 212.756 115.977,212.783 109.967,212.816 109.940 C 212.849 109.914,215.096 109.833,217.810 109.760 L 222.744 109.627 222.811 106.411 C 222.856 104.245,222.788 103.086,222.601 102.861 C 222.153 102.322,193.615 102.367,193.407 102.908 M284.765 102.816 C 284.459 103.122,284.321 136.018,284.623 136.803 C 284.781 137.216,292.448 137.388,293.070 136.992 C 293.286 136.855,293.378 134.432,293.431 127.501 C 293.475 121.714,293.593 118.104,293.742 117.956 C 294.191 117.512,301.131 117.346,301.685 117.767 C 302.150 118.120,302.167 118.439,302.207 127.309 C 302.236 134.059,302.324 136.578,302.537 136.835 C 302.975 137.363,310.836 137.348,311.039 136.818 C 311.310 136.112,311.230 116.891,310.951 115.645 C 309.956 111.207,305.782 109.770,296.787 110.768 C 293.177 111.169,293.439 111.497,293.409 106.529 C 293.398 104.574,293.326 102.873,293.250 102.750 C 293.036 102.404,285.116 102.465,284.765 102.816 M142.580 103.255 C 142.752 103.427,142.840 105.576,142.841 109.629 C 142.842 113.624,142.931 115.831,143.098 115.998 C 143.269 116.169,145.355 116.233,149.354 116.190 L 155.355 116.125 155.475 109.638 L 155.596 103.150 156.197 102.999 C 157.163 102.757,163.230 102.994,163.584 103.287 C 163.843 103.503,163.891 106.611,163.840 120.067 L 163.779 136.582 159.687 136.582 L 155.596 136.582 155.531 130.104 C 155.489 125.816,155.377 123.517,155.201 123.305 C 154.846 122.877,143.323 122.832,143.061 123.258 C 142.968 123.408,142.880 126.381,142.866 129.864 C 142.849 134.031,142.751 136.286,142.581 136.456 C 142.412 136.625,140.991 136.692,138.489 136.649 L 134.657 136.582 134.657 119.856 L 134.657 103.129 135.620 103.008 C 137.283 102.800,142.304 102.978,142.580 103.255 M222.082 103.133 C 222.717 103.280,222.946 108.798,222.332 109.177 C 222.172 109.276,219.954 109.367,217.403 109.379 C 214.634 109.393,212.666 109.500,212.521 109.645 C 212.365 109.801,212.256 114.660,212.216 123.235 L 212.154 136.582 208.201 136.649 C 205.200 136.699,204.201 136.641,204.053 136.408 C 203.946 136.239,203.856 130.168,203.854 122.916 L 203.851 109.732 203.309 109.527 C 203.011 109.415,200.832 109.312,198.465 109.298 C 195.634 109.282,194.050 109.180,193.832 109.000 C 193.368 108.615,193.361 103.665,193.824 103.281 C 194.293 102.892,220.443 102.756,222.082 103.133 M292.930 103.289 C 293.042 103.466,293.135 105.380,293.137 107.542 L 293.141 111.475 294.525 111.362 C 295.286 111.300,297.453 111.117,299.341 110.957 C 304.850 110.488,307.411 111.039,309.094 113.055 C 310.825 115.128,310.830 115.168,310.830 126.474 L 310.830 136.582 306.859 136.582 L 302.888 136.582 302.768 127.437 C 302.702 122.407,302.560 118.116,302.454 117.903 C 301.972 116.937,299.435 116.721,295.307 117.293 L 293.261 117.577 293.141 127.080 L 293.020 136.582 288.995 136.648 C 284.983 136.714,284.970 136.713,284.836 136.167 C 284.392 134.361,284.844 103.446,285.319 103.097 C 285.968 102.619,292.612 102.787,292.930 103.289 M232.010 110.759 C 231.414 110.889,230.764 111.131,230.566 111.295 C 230.367 111.459,229.880 111.725,229.483 111.886 C 227.172 112.825,226.638 114.827,226.523 122.984 C 226.313 137.960,227.590 138.820,247.476 137.086 C 251.730 136.715,251.245 137.160,251.280 133.595 C 251.316 129.897,251.506 130.072,247.849 130.423 C 246.219 130.579,243.096 130.772,240.909 130.852 L 236.933 130.998 236.236 130.399 C 235.485 129.753,235.280 128.522,235.832 127.970 C 236.048 127.755,238.225 127.662,244.101 127.618 C 250.169 127.573,252.126 127.487,252.284 127.257 C 252.677 126.686,252.340 116.494,251.888 115.283 C 251.005 112.914,249.565 111.563,247.163 110.850 C 245.673 110.407,233.932 110.337,232.010 110.759 M247.653 111.438 C 249.836 112.353,250.916 113.579,251.641 115.969 C 251.930 116.921,252.184 126.903,251.925 127.128 C 251.892 127.157,248.129 127.238,243.562 127.309 L 235.259 127.437 235.188 128.764 C 235.130 129.862,235.210 130.191,235.652 130.665 L 236.186 131.239 241.860 131.050 C 244.980 130.946,248.291 130.848,249.218 130.833 L 250.903 130.806 250.970 133.495 L 251.038 136.183 249.767 136.432 C 246.169 137.134,233.307 137.439,231.464 136.865 C 228.007 135.788,227.200 134.071,226.893 127.131 C 226.415 116.336,227.175 113.321,230.806 111.607 C 233.125 110.513,245.159 110.392,247.653 111.438 M262.695 110.981 C 257.228 111.668,256.197 113.840,256.197 124.677 C 256.197 137.917,257.042 138.476,275.090 137.175 C 280.303 136.799,279.904 137.118,279.904 133.343 C 279.904 129.657,280.009 129.767,276.873 130.184 C 273.298 130.659,265.940 130.613,265.574 130.112 C 264.769 129.011,264.777 119.303,265.584 118.411 C 265.996 117.956,266.335 117.929,271.939 117.916 C 275.194 117.909,278.291 117.826,278.821 117.732 L 279.783 117.562 279.851 114.372 C 279.902 111.947,279.844 111.157,279.610 111.079 C 279.095 110.906,263.984 110.820,262.695 110.981 M279.513 111.943 C 279.704 112.898,279.703 116.193,279.511 116.907 L 279.366 117.449 272.553 117.449 L 265.739 117.449 265.240 118.083 C 264.770 118.680,264.741 119.021,264.741 123.944 C 264.741 129.674,264.894 130.594,265.888 130.844 C 266.533 131.006,274.998 130.779,277.781 130.526 L 279.388 130.379 279.551 131.249 C 279.780 132.469,279.593 135.906,279.281 136.219 C 278.900 136.599,271.041 137.181,266.255 137.183 C 257.360 137.186,256.121 135.386,256.398 122.864 C 256.574 114.900,257.428 112.890,261.131 111.724 C 262.553 111.276,262.930 111.258,271.270 111.224 L 279.362 111.191 279.513 111.943 M169.675 116.208 C 169.344 116.254,168.938 116.403,168.773 116.539 C 168.360 116.877,168.349 122.766,168.761 123.177 C 169.175 123.592,188.225 123.592,188.640 123.177 C 189.055 122.762,189.044 116.511,188.628 116.367 C 188.261 116.240,170.520 116.091,169.675 116.208 M99.872 117.341 C 99.581 117.811,99.385 118.237,99.435 118.288 C 99.485 118.338,99.772 117.953,100.071 117.433 C 100.750 116.253,100.590 116.179,99.872 117.341 M188.500 117.044 C 188.744 117.428,188.732 122.303,188.485 122.691 C 188.237 123.082,169.565 123.211,169.178 122.824 C 169.036 122.682,168.965 121.401,169.005 119.717 L 169.073 116.851 169.777 116.729 C 171.294 116.465,188.314 116.751,188.500 117.044 M235.729 117.077 C 235.053 117.753,234.844 120.757,235.439 121.248 C 235.615 121.393,237.368 121.510,239.644 121.529 L 243.548 121.561 243.707 120.926 C 243.954 119.944,243.610 117.420,243.163 116.926 C 242.466 116.155,236.530 116.276,235.729 117.077 M242.482 117.061 C 243.044 117.471,243.594 119.739,243.312 120.481 C 242.977 121.363,236.379 121.402,235.823 120.525 C 235.335 119.756,235.598 117.742,236.254 117.226 C 237.048 116.601,241.686 116.478,242.482 117.061 M105.450 140.373 C 105.606 140.737,105.807 141.035,105.897 141.035 C 105.986 141.035,106.187 140.737,106.343 140.373 C 106.606 139.759,106.600 139.745,106.261 140.178 C 105.900 140.641,105.893 140.641,105.532 140.178 C 105.193 139.745,105.187 139.759,105.450 140.373 " stroke="none" fill="#98e2f5" fill-rule="evenodd"></path><path id="path4" d="M62.949 98.623 C 62.876 98.697,62.816 98.820,62.816 98.897 C 62.816 98.974,73.525 99.037,86.613 99.037 C 106.137 99.037,110.232 98.983,109.417 98.734 C 108.404 98.424,63.256 98.317,62.949 98.623 M62.907 100.602 C 62.995 101.065,63.173 101.480,63.303 101.524 C 63.432 101.568,63.538 101.923,63.538 102.312 C 63.538 102.802,63.832 103.339,64.499 104.062 C 65.027 104.635,65.628 105.580,65.833 106.161 C 66.038 106.743,66.517 107.544,66.897 107.941 C 67.278 108.339,67.711 109.126,67.860 109.691 C 68.025 110.314,68.446 111.004,68.934 111.447 C 69.439 111.907,69.786 112.487,69.871 113.011 C 69.946 113.469,70.149 113.994,70.322 114.178 C 70.496 114.362,71.071 115.235,71.600 116.119 C 72.130 117.002,72.821 118.121,73.135 118.605 C 73.450 119.089,73.761 119.885,73.826 120.374 C 73.903 120.945,74.051 121.222,74.241 121.148 C 74.607 121.008,75.212 121.896,75.432 122.895 C 75.522 123.305,75.861 123.871,76.185 124.153 C 76.510 124.435,76.775 124.887,76.775 125.156 C 76.775 125.426,76.925 125.704,77.108 125.775 C 77.291 125.845,77.509 126.334,77.594 126.861 C 77.702 127.542,77.990 128.034,78.585 128.556 C 79.045 128.961,79.422 129.489,79.422 129.729 C 79.422 129.970,79.910 130.894,80.505 131.782 C 81.101 132.670,81.593 133.626,81.599 133.907 C 81.617 134.757,82.157 135.742,82.773 136.050 C 83.093 136.211,83.459 136.667,83.586 137.064 C 83.712 137.461,84.019 138.009,84.266 138.283 C 84.514 138.556,84.717 138.881,84.716 139.005 C 84.698 141.683,86.852 142.248,87.917 139.844 C 88.178 139.255,88.702 138.443,89.081 138.039 C 89.459 137.635,89.770 137.169,89.770 137.004 C 89.771 136.838,89.880 136.703,90.012 136.703 C 90.144 136.703,90.253 136.444,90.253 136.127 C 90.253 135.810,90.401 135.494,90.583 135.424 C 90.764 135.355,90.984 135.015,91.070 134.670 C 91.157 134.324,91.709 133.339,92.296 132.481 C 92.884 131.623,93.474 130.512,93.609 130.013 C 93.743 129.513,94.235 128.735,94.701 128.284 C 95.264 127.737,95.548 127.242,95.548 126.802 C 95.548 126.439,95.656 126.075,95.788 125.993 C 95.921 125.911,96.029 125.608,96.029 125.319 C 96.029 124.950,95.840 125.151,95.395 125.995 C 95.046 126.655,94.575 127.467,94.349 127.798 C 94.123 128.129,93.420 129.374,92.787 130.566 C 92.153 131.757,91.506 132.894,91.349 133.093 C 90.977 133.562,89.290 136.457,89.290 136.626 C 89.290 137.027,86.799 140.794,86.534 140.794 C 86.133 140.794,85.295 139.563,84.078 137.184 C 83.841 136.721,83.358 135.906,83.005 135.374 C 82.652 134.841,82.186 134.029,81.969 133.569 C 81.753 133.108,81.443 132.514,81.281 132.247 C 81.119 131.980,80.757 131.385,80.477 130.923 C 80.197 130.462,79.615 129.434,79.183 128.640 C 78.752 127.846,78.017 126.492,77.549 125.632 C 77.082 124.771,76.513 123.797,76.286 123.466 C 76.058 123.135,74.975 121.239,73.879 119.254 C 72.783 117.268,71.685 115.355,71.439 115.001 C 71.194 114.648,70.655 113.673,70.241 112.835 C 69.827 111.997,69.196 110.878,68.840 110.349 C 68.483 109.819,68.123 109.197,68.039 108.966 C 67.954 108.734,67.503 107.947,67.035 107.216 C 66.568 106.485,66.185 105.806,66.185 105.707 C 66.185 105.608,65.932 105.150,65.622 104.689 C 65.312 104.228,64.593 102.984,64.023 101.925 C 62.779 99.613,62.701 99.520,62.907 100.602 M285.483 101.837 C 284.179 102.327,284.236 101.609,284.139 118.796 C 284.090 127.519,284.040 134.982,284.029 135.379 C 283.974 137.255,285.531 138.827,286.510 137.885 C 286.636 137.764,287.881 137.665,289.278 137.664 C 294.227 137.662,293.857 138.519,293.860 127.057 L 293.863 118.735 295.085 118.453 C 297.091 117.990,301.321 118.079,301.711 118.592 C 302.247 119.298,302.185 132.510,301.644 132.812 C 301.296 133.007,301.283 133.135,301.547 133.773 C 301.790 134.360,301.792 134.690,301.555 135.409 C 300.989 137.121,301.973 137.615,305.786 137.534 C 307.482 137.499,309.094 137.554,309.369 137.657 C 310.424 138.054,312.468 136.573,311.977 135.766 C 311.755 135.400,311.681 133.010,311.685 126.302 C 311.691 115.825,311.524 114.256,310.281 113.094 C 309.855 112.696,309.507 112.240,309.507 112.080 C 309.507 111.727,307.381 110.722,305.897 110.373 C 304.621 110.073,299.539 110.056,296.209 110.340 C 294.837 110.457,293.860 110.450,293.857 110.324 C 293.853 110.205,293.806 108.441,293.752 106.402 C 293.641 102.208,293.582 102.064,291.912 101.920 C 291.330 101.870,290.854 101.821,290.854 101.811 C 290.854 101.700,285.783 101.724,285.483 101.837 M134.372 102.245 C 133.623 102.994,133.590 103.703,133.609 118.802 C 133.619 127.258,133.612 134.691,133.593 135.320 C 133.540 137.080,134.866 138.217,136.342 137.677 C 136.474 137.629,137.990 137.574,139.711 137.555 C 143.347 137.516,144.341 137.160,144.046 136.000 C 143.733 134.765,143.625 126.111,143.919 125.757 C 144.114 125.522,144.124 125.285,143.951 124.962 C 143.272 123.694,144.020 123.466,148.846 123.466 L 153.259 123.466 154.027 124.340 C 154.648 125.047,154.770 125.358,154.664 125.965 C 154.591 126.377,154.537 128.339,154.543 130.325 C 154.550 132.310,154.546 134.542,154.535 135.283 C 154.504 137.471,154.667 137.542,159.717 137.559 C 163.358 137.570,163.957 137.519,164.277 137.165 C 164.675 136.725,164.852 104.135,164.462 103.113 C 163.981 101.854,163.782 101.803,159.623 101.888 C 154.230 101.997,154.546 101.542,154.484 109.285 C 154.427 116.437,154.954 115.823,148.953 115.720 C 143.190 115.622,143.758 116.323,143.746 109.290 C 143.733 101.381,144.030 101.775,138.164 101.869 C 135.661 101.910,134.602 102.015,134.372 102.245 M194.073 101.998 C 192.794 102.181,192.439 103.047,192.499 105.842 C 192.597 110.413,192.518 110.351,198.087 110.263 L 202.330 110.196 202.736 110.816 C 203.087 111.351,203.230 132.528,202.907 136.083 C 202.789 137.379,204.825 137.869,209.495 137.667 C 209.886 137.650,210.446 137.765,210.741 137.923 C 211.194 138.165,211.382 138.127,211.956 137.677 C 213.218 136.687,213.194 136.963,213.219 123.468 C 213.245 109.319,213.192 109.728,214.934 110.111 C 216.111 110.370,219.356 110.419,219.964 110.187 C 220.709 109.904,221.606 110.336,221.709 111.026 C 221.813 111.732,222.382 111.837,222.384 111.151 C 222.385 110.842,222.566 110.265,222.786 109.868 C 223.048 109.395,223.197 108.522,223.217 107.341 C 223.235 106.348,223.334 105.102,223.438 104.573 C 223.603 103.734,223.547 103.517,223.006 102.888 L 222.385 102.166 213.298 102.109 C 208.301 102.077,202.046 102.023,199.398 101.988 C 196.751 101.954,194.355 101.958,194.073 101.998 M143.073 102.755 C 143.151 102.881,143.224 105.724,143.237 109.073 C 143.249 112.422,143.358 115.352,143.479 115.584 C 143.799 116.195,154.614 116.233,154.848 115.624 C 154.928 115.415,154.994 112.512,154.994 109.174 C 154.994 104.774,155.073 103.025,155.283 102.816 C 155.834 102.264,163.827 102.424,164.131 102.993 C 164.512 103.704,164.473 136.514,164.091 136.895 C 163.889 137.097,162.567 137.184,159.687 137.184 C 156.807 137.184,155.485 137.097,155.283 136.895 C 155.073 136.686,154.993 134.915,154.990 130.457 C 154.986 122.546,155.583 123.225,148.626 123.225 L 143.670 123.225 143.445 123.817 C 143.322 124.142,143.239 127.181,143.263 130.570 C 143.298 135.752,143.249 136.766,142.952 136.954 C 142.407 137.298,134.695 137.246,134.344 136.895 C 133.926 136.478,133.926 103.234,134.344 102.816 C 134.700 102.460,142.856 102.404,143.073 102.755 M222.601 102.861 C 222.788 103.086,222.856 104.245,222.811 106.411 L 222.744 109.627 217.810 109.760 C 215.096 109.833,212.849 109.914,212.816 109.940 C 212.783 109.967,212.756 115.977,212.756 123.297 C 212.756 133.328,212.685 136.678,212.467 136.895 C 212.098 137.264,204.515 137.299,203.835 136.935 C 203.383 136.693,203.369 136.290,203.369 123.466 C 203.369 110.642,203.355 110.238,202.904 109.996 C 202.631 109.851,200.598 109.747,197.996 109.747 C 192.780 109.747,193.261 110.114,193.261 106.137 C 193.261 104.570,193.327 103.117,193.407 102.908 C 193.615 102.367,222.153 102.322,222.601 102.861 M293.250 102.750 C 293.326 102.873,293.398 104.574,293.409 106.529 C 293.439 111.497,293.177 111.169,296.787 110.768 C 305.782 109.770,309.956 111.207,310.951 115.645 C 311.230 116.891,311.310 136.112,311.039 136.818 C 310.836 137.348,302.975 137.363,302.537 136.835 C 302.324 136.578,302.236 134.059,302.207 127.309 C 302.167 118.439,302.150 118.120,301.685 117.767 C 301.131 117.346,294.191 117.512,293.742 117.956 C 293.593 118.104,293.475 121.714,293.431 127.501 C 293.378 134.432,293.286 136.855,293.070 136.992 C 292.448 137.388,284.781 137.216,284.623 136.803 C 284.321 136.018,284.459 103.122,284.765 102.816 C 285.116 102.465,293.036 102.404,293.250 102.750 M233.175 110.107 C 233.109 110.172,232.476 110.335,231.767 110.470 C 231.059 110.604,230.309 110.861,230.101 111.041 C 229.893 111.220,229.452 111.437,229.122 111.522 C 228.287 111.736,226.854 113.907,226.481 115.523 C 226.314 116.252,226.009 117.209,225.806 117.652 C 225.566 118.173,225.521 118.512,225.679 118.614 C 225.830 118.712,225.974 121.509,226.057 125.930 C 226.208 134.040,226.135 133.725,228.338 135.773 C 231.017 138.266,233.588 138.542,246.254 137.693 L 251.232 137.359 251.470 136.730 C 251.884 135.632,251.980 131.612,251.613 130.739 C 251.103 129.527,248.719 128.857,247.817 129.673 C 247.217 130.216,238.745 130.665,237.296 130.230 C 235.965 129.832,235.700 128.416,236.910 128.170 C 239.028 127.739,251.294 127.880,251.615 128.339 C 253.115 130.480,253.427 118.349,251.972 114.460 C 251.697 113.724,251.341 113.040,251.181 112.939 C 251.022 112.838,250.703 112.460,250.473 112.099 C 250.043 111.422,248.735 110.717,247.052 110.255 C 246.104 109.995,233.422 109.859,233.175 110.107 M247.163 110.850 C 249.565 111.563,251.005 112.914,251.888 115.283 C 252.340 116.494,252.677 126.686,252.284 127.257 C 252.126 127.487,250.169 127.573,244.101 127.618 C 238.225 127.662,236.048 127.755,235.832 127.970 C 235.280 128.522,235.485 129.753,236.236 130.399 L 236.933 130.998 240.909 130.852 C 243.096 130.772,246.219 130.579,247.849 130.423 C 251.506 130.072,251.316 129.897,251.280 133.595 C 251.245 137.160,251.730 136.715,247.476 137.086 C 227.590 138.820,226.313 137.960,226.523 122.984 C 226.638 114.827,227.172 112.825,229.483 111.886 C 229.880 111.725,230.367 111.459,230.566 111.295 C 231.617 110.425,244.565 110.078,247.163 110.850 M260.650 110.969 C 259.504 111.280,258.690 111.652,258.421 111.987 C 257.382 113.283,256.559 114.684,256.568 115.144 C 256.575 115.538,256.646 115.487,256.900 114.903 C 258.464 111.310,260.594 110.750,271.961 110.940 L 279.783 111.071 279.783 114.316 L 279.783 117.561 278.821 117.732 C 278.291 117.826,275.194 117.909,271.939 117.916 C 266.335 117.929,265.996 117.956,265.584 118.411 C 264.777 119.303,264.769 129.011,265.574 130.112 C 265.940 130.613,273.298 130.659,276.873 130.184 C 280.009 129.767,279.904 129.657,279.904 133.343 C 279.904 137.118,280.303 136.799,275.090 137.175 C 261.219 138.175,258.507 137.611,256.662 133.342 C 256.173 132.211,255.942 118.994,256.370 116.606 L 256.542 115.644 256.134 116.486 C 255.605 117.577,255.389 128.525,255.845 131.111 C 256.002 132.002,256.185 133.148,256.252 133.657 C 256.448 135.159,258.194 136.622,260.827 137.494 L 262.936 138.192 267.629 138.019 C 280.389 137.549,280.168 137.595,280.518 135.341 C 280.604 134.791,280.600 134.005,280.510 133.596 C 280.387 133.034,280.440 132.816,280.727 132.706 C 281.175 132.534,281.245 131.862,280.806 131.949 C 280.619 131.987,280.478 131.676,280.432 131.125 C 280.308 129.643,280.254 129.631,274.425 129.895 C 265.075 130.317,265.837 130.420,265.589 128.704 C 265.360 127.117,265.356 126.984,265.415 122.730 C 265.482 117.882,264.684 118.355,273.072 118.189 L 280.024 118.051 280.306 116.968 C 280.460 116.372,280.608 115.830,280.634 115.764 C 280.826 115.273,280.533 112.342,280.219 111.613 L 279.831 110.710 273.647 110.710 C 270.246 110.710,266.337 110.658,264.959 110.595 C 262.932 110.501,262.111 110.573,260.650 110.969 M169.254 115.896 C 168.243 116.224,167.989 116.494,168.010 117.219 C 168.019 117.544,168.056 118.926,168.092 120.291 C 168.188 123.885,168.357 124.070,171.503 124.026 C 172.814 124.007,177.136 123.985,181.107 123.977 C 189.811 123.958,189.277 124.136,189.525 121.161 C 189.642 119.755,189.613 118.999,189.434 118.820 C 189.289 118.675,189.170 118.033,189.170 117.393 C 189.170 115.909,189.727 116.019,181.709 115.922 C 177.936 115.877,173.767 115.795,172.443 115.741 C 171.109 115.686,169.687 115.755,169.254 115.896 M188.628 116.367 C 189.044 116.511,189.055 122.762,188.640 123.177 C 188.225 123.592,169.175 123.592,168.761 123.177 C 168.349 122.766,168.360 116.877,168.773 116.539 C 168.938 116.403,169.344 116.254,169.675 116.208 C 170.520 116.091,188.261 116.240,188.628 116.367 M120.822 117.148 C 120.825 117.664,120.877 117.730,121.059 117.449 C 121.363 116.978,121.363 116.486,121.059 116.486 C 120.927 116.486,120.820 116.784,120.822 117.148 M236.254 117.226 C 235.598 117.742,235.335 119.756,235.823 120.525 C 236.379 121.402,242.977 121.363,243.312 120.481 C 243.594 119.739,243.044 117.471,242.482 117.061 C 241.686 116.478,237.048 116.601,236.254 117.226 M241.890 117.421 C 242.282 117.450,242.889 119.688,242.664 120.275 C 242.349 121.095,236.489 120.456,236.207 119.571 C 235.640 117.782,237.464 117.092,241.890 117.421 M113.759 129.342 C 113.589 129.787,113.795 130.445,114.105 130.445 C 114.376 130.445,114.379 129.707,114.109 129.282 C 113.945 129.023,113.877 129.035,113.759 129.342 M312.756 136.221 C 312.580 136.505,312.808 136.943,313.131 136.943 C 313.255 136.943,313.357 136.727,313.357 136.462 C 313.357 135.954,313.007 135.814,312.756 136.221 M225.629 137.188 C 225.409 137.545,225.618 137.727,226.132 137.627 C 226.508 137.553,226.512 137.514,226.172 137.233 C 225.901 137.008,225.748 136.996,225.629 137.188 " stroke="none" fill="#cbfbfb" fill-rule="evenodd"></path></g></svg>